<mxfile host="app.diagrams.net" agent="Mozilla/5.0 (X11; Linux x86_64; rv:124.0) Gecko/20100101 Firefox/124.0" version="24.7.14">
  <diagram name="Page-1" id="jR3CGgP1g1BjzRoQCqm1">
    <mxGraphModel dx="1175" dy="613" grid="1" gridSize="10" guides="1" tooltips="1" connect="1" arrows="1" fold="1" page="1" pageScale="1" pageWidth="850" pageHeight="1100" math="0" shadow="0">
      <root>
        <mxCell id="0" />
        <mxCell id="1" parent="0" />
        <mxCell id="RLlSU3_BGVDVM2KfrkIX-56" value="" style="edgeStyle=orthogonalEdgeStyle;rounded=0;orthogonalLoop=1;jettySize=auto;html=1;" edge="1" parent="1" source="RLlSU3_BGVDVM2KfrkIX-1" target="RLlSU3_BGVDVM2KfrkIX-40">
          <mxGeometry relative="1" as="geometry" />
        </mxCell>
        <mxCell id="RLlSU3_BGVDVM2KfrkIX-1" value="Start" style="ellipse;whiteSpace=wrap;html=1;fontFamily=Verdana;fontSize=17;" vertex="1" parent="1">
          <mxGeometry x="190" y="173" width="100" height="60" as="geometry" />
        </mxCell>
        <mxCell id="RLlSU3_BGVDVM2KfrkIX-7" value="End" style="ellipse;whiteSpace=wrap;html=1;fontFamily=Verdana;fontSize=17;" vertex="1" parent="1">
          <mxGeometry x="190" y="825" width="100" height="60" as="geometry" />
        </mxCell>
        <mxCell id="RLlSU3_BGVDVM2KfrkIX-57" value="" style="edgeStyle=orthogonalEdgeStyle;rounded=0;orthogonalLoop=1;jettySize=auto;html=1;" edge="1" parent="1" source="RLlSU3_BGVDVM2KfrkIX-40" target="RLlSU3_BGVDVM2KfrkIX-41">
          <mxGeometry relative="1" as="geometry" />
        </mxCell>
        <mxCell id="RLlSU3_BGVDVM2KfrkIX-40" value="Read Province, BoyAge, GirlAge" style="shape=parallelogram;perimeter=parallelogramPerimeter;whiteSpace=wrap;html=1;fixedSize=1;fontFamily=Verdana;" vertex="1" parent="1">
          <mxGeometry x="110" y="283" width="260" height="60" as="geometry" />
        </mxCell>
        <mxCell id="RLlSU3_BGVDVM2KfrkIX-58" value="" style="edgeStyle=orthogonalEdgeStyle;rounded=0;orthogonalLoop=1;jettySize=auto;html=1;" edge="1" parent="1" source="RLlSU3_BGVDVM2KfrkIX-41" target="RLlSU3_BGVDVM2KfrkIX-47">
          <mxGeometry relative="1" as="geometry" />
        </mxCell>
        <mxCell id="RLlSU3_BGVDVM2KfrkIX-68" value="&lt;font face=&quot;Verdana&quot; style=&quot;font-size: 18px;&quot;&gt;Yes&lt;br&gt;&lt;/font&gt;" style="edgeLabel;html=1;align=center;verticalAlign=middle;resizable=0;points=[];" vertex="1" connectable="0" parent="RLlSU3_BGVDVM2KfrkIX-58">
          <mxGeometry relative="1" as="geometry">
            <mxPoint as="offset" />
          </mxGeometry>
        </mxCell>
        <mxCell id="RLlSU3_BGVDVM2KfrkIX-62" value="" style="edgeStyle=orthogonalEdgeStyle;rounded=0;orthogonalLoop=1;jettySize=auto;html=1;" edge="1" parent="1" source="RLlSU3_BGVDVM2KfrkIX-41" target="RLlSU3_BGVDVM2KfrkIX-42">
          <mxGeometry relative="1" as="geometry" />
        </mxCell>
        <mxCell id="RLlSU3_BGVDVM2KfrkIX-69" value="&lt;font style=&quot;font-size: 18px;&quot; face=&quot;Verdana&quot;&gt;No&lt;/font&gt;" style="edgeLabel;html=1;align=center;verticalAlign=middle;resizable=0;points=[];" vertex="1" connectable="0" parent="RLlSU3_BGVDVM2KfrkIX-62">
          <mxGeometry relative="1" as="geometry">
            <mxPoint y="-2" as="offset" />
          </mxGeometry>
        </mxCell>
        <mxCell id="RLlSU3_BGVDVM2KfrkIX-41" value="If Province == &quot;Sindh&quot;" style="rhombus;whiteSpace=wrap;html=1;fontFamily=Verdana;" vertex="1" parent="1">
          <mxGeometry x="120" y="407.5" width="240" height="90" as="geometry" />
        </mxCell>
        <mxCell id="RLlSU3_BGVDVM2KfrkIX-61" value="" style="edgeStyle=orthogonalEdgeStyle;rounded=0;orthogonalLoop=1;jettySize=auto;html=1;" edge="1" parent="1" source="RLlSU3_BGVDVM2KfrkIX-42" target="RLlSU3_BGVDVM2KfrkIX-52">
          <mxGeometry relative="1" as="geometry" />
        </mxCell>
        <mxCell id="RLlSU3_BGVDVM2KfrkIX-71" value="&lt;font style=&quot;font-size: 18px;&quot; face=&quot;Verdana&quot;&gt;No&lt;/font&gt;" style="edgeLabel;html=1;align=center;verticalAlign=middle;resizable=0;points=[];" vertex="1" connectable="0" parent="RLlSU3_BGVDVM2KfrkIX-61">
          <mxGeometry relative="1" as="geometry">
            <mxPoint y="-9" as="offset" />
          </mxGeometry>
        </mxCell>
        <mxCell id="RLlSU3_BGVDVM2KfrkIX-63" value="" style="edgeStyle=orthogonalEdgeStyle;rounded=0;orthogonalLoop=1;jettySize=auto;html=1;" edge="1" parent="1" source="RLlSU3_BGVDVM2KfrkIX-42" target="RLlSU3_BGVDVM2KfrkIX-53">
          <mxGeometry relative="1" as="geometry" />
        </mxCell>
        <mxCell id="RLlSU3_BGVDVM2KfrkIX-70" value="&lt;font style=&quot;font-size: 18px;&quot; face=&quot;Verdana&quot;&gt;Yes&lt;/font&gt;" style="edgeLabel;html=1;align=center;verticalAlign=middle;resizable=0;points=[];" vertex="1" connectable="0" parent="RLlSU3_BGVDVM2KfrkIX-63">
          <mxGeometry relative="1" as="geometry">
            <mxPoint x="-7" as="offset" />
          </mxGeometry>
        </mxCell>
        <mxCell id="RLlSU3_BGVDVM2KfrkIX-42" value="If BoyAge &amp;gt;= 18 &amp;amp;&amp;amp; GirlAge &amp;gt;= 16" style="rhombus;whiteSpace=wrap;html=1;fontFamily=Verdana;" vertex="1" parent="1">
          <mxGeometry x="70" y="565" width="340" height="95" as="geometry" />
        </mxCell>
        <mxCell id="RLlSU3_BGVDVM2KfrkIX-59" value="" style="edgeStyle=orthogonalEdgeStyle;rounded=0;orthogonalLoop=1;jettySize=auto;html=1;" edge="1" parent="1" source="RLlSU3_BGVDVM2KfrkIX-47" target="RLlSU3_BGVDVM2KfrkIX-53">
          <mxGeometry relative="1" as="geometry" />
        </mxCell>
        <mxCell id="RLlSU3_BGVDVM2KfrkIX-66" value="&lt;font style=&quot;font-size: 18px;&quot; face=&quot;Verdana&quot;&gt;Yes&lt;/font&gt;" style="edgeLabel;html=1;align=center;verticalAlign=middle;resizable=0;points=[];" vertex="1" connectable="0" parent="RLlSU3_BGVDVM2KfrkIX-59">
          <mxGeometry x="-0.1232" relative="1" as="geometry">
            <mxPoint as="offset" />
          </mxGeometry>
        </mxCell>
        <mxCell id="RLlSU3_BGVDVM2KfrkIX-60" style="edgeStyle=orthogonalEdgeStyle;rounded=0;orthogonalLoop=1;jettySize=auto;html=1;entryX=1;entryY=0.5;entryDx=0;entryDy=0;fillColor=#f8cecc;strokeColor=#b85450;" edge="1" parent="1" source="RLlSU3_BGVDVM2KfrkIX-47" target="RLlSU3_BGVDVM2KfrkIX-52">
          <mxGeometry relative="1" as="geometry">
            <Array as="points">
              <mxPoint x="820" y="453" />
              <mxPoint x="820" y="743" />
            </Array>
          </mxGeometry>
        </mxCell>
        <mxCell id="RLlSU3_BGVDVM2KfrkIX-65" value="&lt;font style=&quot;font-size: 18px;&quot; face=&quot;Verdana&quot;&gt;No&lt;/font&gt;" style="edgeLabel;html=1;align=center;verticalAlign=middle;resizable=0;points=[];" vertex="1" connectable="0" parent="RLlSU3_BGVDVM2KfrkIX-60">
          <mxGeometry x="-0.92" relative="1" as="geometry">
            <mxPoint as="offset" />
          </mxGeometry>
        </mxCell>
        <mxCell id="RLlSU3_BGVDVM2KfrkIX-47" value="If BoyAge &amp;gt;= 18 &amp;amp;&amp;amp; GirlAge &amp;gt;= 18" style="rhombus;whiteSpace=wrap;html=1;fontFamily=Verdana;" vertex="1" parent="1">
          <mxGeometry x="420" y="400" width="330" height="105" as="geometry" />
        </mxCell>
        <mxCell id="RLlSU3_BGVDVM2KfrkIX-67" value="" style="edgeStyle=orthogonalEdgeStyle;rounded=0;orthogonalLoop=1;jettySize=auto;html=1;" edge="1" parent="1" source="RLlSU3_BGVDVM2KfrkIX-52" target="RLlSU3_BGVDVM2KfrkIX-7">
          <mxGeometry relative="1" as="geometry" />
        </mxCell>
        <mxCell id="RLlSU3_BGVDVM2KfrkIX-52" value="Print &quot;Ilegal&quot;" style="shape=parallelogram;perimeter=parallelogramPerimeter;whiteSpace=wrap;html=1;fixedSize=1;fontFamily=Verdana;" vertex="1" parent="1">
          <mxGeometry x="170" y="717.5" width="140" height="50" as="geometry" />
        </mxCell>
        <mxCell id="RLlSU3_BGVDVM2KfrkIX-64" style="edgeStyle=orthogonalEdgeStyle;rounded=0;orthogonalLoop=1;jettySize=auto;html=1;entryX=1;entryY=0.5;entryDx=0;entryDy=0;fillColor=#d5e8d4;strokeColor=#82b366;" edge="1" parent="1" source="RLlSU3_BGVDVM2KfrkIX-53" target="RLlSU3_BGVDVM2KfrkIX-7">
          <mxGeometry relative="1" as="geometry">
            <Array as="points">
              <mxPoint x="585" y="855" />
            </Array>
          </mxGeometry>
        </mxCell>
        <mxCell id="RLlSU3_BGVDVM2KfrkIX-53" value="Print &quot;Legal&quot;" style="shape=parallelogram;perimeter=parallelogramPerimeter;whiteSpace=wrap;html=1;fixedSize=1;fontFamily=Verdana;" vertex="1" parent="1">
          <mxGeometry x="515" y="587.5" width="140" height="50" as="geometry" />
        </mxCell>
      </root>
    </mxGraphModel>
  </diagram>
</mxfile>
